<!--?xml version="1.0" standalone="no"?-->

<svg xmlns="http://www.w3.org/2000/svg" width="293.000000pt" height="300.000000pt" viewBox="0 0 293.000000 300.000000" preserveAspectRatio="xMidYMid meet">
<g transform="translate(0.000000,300.000000) scale(0.100000,-0.100000)" fill="#161616" stroke="none">
<path style="position: relative;" class="node" id="node1" d="M5 2655 c10 -174 57 -404 113 -549 37 -95 102 -166 196 -211 70 -33
244 -81 337 -92 l48 -6 -6 39 c-8 53 -51 183 -71 216 -60 95 -62 98 -46 98 24
0 67 -26 95 -57 46 -50 61 -106 61 -227 0 -60 -4 -112 -9 -116 -13 -11 -231
18 -308 41 -157 48 -256 121 -314 233 -17 32 -31 52 -32 45 -4 -54 2 -171 11
-211 28 -115 175 -213 378 -252 173 -33 231 -38 338 -32 205 11 262 23 293 59
10 13 4 17 -39 28 -27 7 -50 15 -49 18 0 3 12 31 27 61 l27 55 65 6 c36 3 68
3 72 0 4 -3 3 -24 -2 -45 -28 -126 -175 -213 -397 -236 -192 -20 -456 28 -535
98 -16 14 -18 14 -18 -1 0 -26 59 -86 109 -111 110 -55 147 -61 413 -61 282 0
279 1 327 -90 23 -44 26 -62 26 -145 0 -82 -3 -101 -24 -138 -28 -48 -39 -51
-70 -18 -22 23 -22 25 -7 70 15 45 22 116 11 116 -4 0 -20 -8 -38 -17 -40 -21
-134 -43 -153 -36 -21 8 -17 17 14 35 15 9 47 38 72 64 40 41 42 46 20 40 -44
-11 -216 -19 -253 -12 -23 4 -37 13 -37 21 0 8 1 15 3 15 34 0 186 25 225 37
60 19 58 37 -3 23 -82 -19 -351 -9 -409 15 -30 13 -16 -5 66 -83 l76 -74 83 1
c46 0 99 4 119 7 52 10 28 -10 -62 -49 l-76 -33 71 -42 c38 -23 79 -42 91 -42
12 0 42 11 68 25 26 14 49 25 52 25 10 0 -8 -36 -37 -72 -17 -21 -28 -40 -26
-42 2 -2 36 -20 76 -40 60 -30 77 -34 98 -26 128 49 186 219 131 383 -12 37
-35 80 -49 95 -15 16 -27 32 -27 38 0 5 20 20 45 33 85 45 147 135 163 235 10
62 -1 160 -22 191 -11 17 -10 26 11 65 29 53 28 127 -2 160 -25 28 -4 26 60
-4 57 -27 104 -73 133 -130 l19 -40 13 38 c7 21 10 53 7 72 -7 41 7 44 27 6 8
-15 32 -45 54 -67 l41 -39 -30 -40 c-20 -29 -31 -60 -37 -104 -20 -144 34
-261 155 -339 l53 -34 -32 -47 c-37 -54 -68 -156 -68 -224 0 -100 65 -210 143
-243 36 -15 38 -15 109 21 40 20 75 38 77 40 2 2 -10 20 -26 41 -28 36 -47 73
-38 73 2 0 25 -11 51 -25 56 -30 93 -32 125 -7 13 10 44 30 68 44 l43 26 -38
12 c-47 15 -137 60 -132 65 2 2 40 0 85 -4 122 -12 139 -7 228 77 75 70 92 97
43 71 -31 -17 -339 -25 -392 -11 -22 6 -44 8 -49 5 -14 -8 79 -40 138 -47 25
-3 65 -9 90 -12 56 -7 61 -30 8 -40 -38 -7 -209 1 -253 13 l-25 6 25 -28 c14
-15 46 -45 72 -65 36 -29 44 -41 35 -48 -16 -13 -84 0 -144 28 -24 11 -45 20
-48 20 -11 0 -4 -72 11 -116 15 -45 15 -47 -7 -70 -31 -33 -42 -30 -70 18 -21
37 -24 56 -24 138 0 83 3 101 26 145 48 91 43 90 337 91 235 0 262 2 313 21
117 44 178 88 194 143 7 24 7 24 -11 9 -83 -72 -339 -119 -534 -100 -234 25
-390 121 -402 251 l-3 35 65 -4 c36 -1 68 -5 72 -7 7 -5 60 -116 56 -119 -2
-1 -22 -7 -46 -14 -49 -14 -52 -24 -15 -48 31 -21 103 -31 268 -39 186 -9 412
34 553 105 74 37 146 115 160 173 9 35 16 155 13 217 -1 8 -15 -13 -31 -46
-64 -128 -204 -215 -405 -252 -95 -18 -216 -28 -221 -19 -3 5 -6 57 -6 116 0
118 15 175 61 225 28 31 71 57 95 57 16 0 14 -3 -46 -98 -37 -60 -87 -249 -65
-252 23 -4 281 52 315 68 9 5 43 21 75 37 88 42 147 113 185 222 59 169 97
355 107 528 l6 100 -24 -65 c-53 -143 -162 -290 -254 -342 -85 -48 -183 -159
-207 -235 -10 -32 -2 -29 53 17 56 47 105 74 179 100 63 21 68 16 52 -56 -33
-146 -155 -241 -359 -278 l-34 -6 6 55 c10 100 74 210 194 332 95 98 119 149
97 207 -10 25 -24 19 -24 -10 0 -36 -32 -85 -69 -107 -17 -10 -72 -30 -123
-46 -120 -36 -160 -57 -234 -124 -158 -144 -182 -346 -57 -471 35 -35 38 -36
113 -36 96 0 244 25 336 56 85 29 94 30 63 5 -66 -51 -239 -98 -400 -107
l-110 -7 -45 44 c-85 82 -124 196 -103 299 11 55 52 134 92 177 26 29 19 36
-28 27 -43 -8 -107 -61 -133 -108 -9 -17 -21 -60 -27 -96 -10 -60 -13 -65 -39
-68 -84 -10 -104 83 -28 128 41 24 -44 38 -100 15 -13 -5 -28 15 -74 105 -94
184 -188 261 -305 247 -57 -7 -99 -29 -99 -52 0 -11 -13 -15 -52 -15 -94 0
-168 -54 -168 -124 0 -24 2 -25 49 -19 90 10 177 -53 196 -144 7 -35 -4 -43
-25 -18 -20 24 -81 38 -120 28 l-35 -10 31 -16 c74 -39 49 -135 -32 -125 -26
3 -29 8 -39 68 -13 76 -31 113 -77 157 -33 31 -112 62 -125 50 -3 -4 3 -17 14
-30 40 -43 81 -122 92 -177 21 -103 -18 -217 -103 -299 l-45 -44 -106 7 c-170
11 -367 65 -405 111 -16 19 -8 19 36 0 75 -31 211 -57 324 -61 109 -5 116 -4
140 18 138 127 119 336 -44 485 -74 67 -112 87 -236 125 -139 43 -190 84 -190
153 0 28 -15 33 -24 9 -22 -58 2 -109 97 -207 117 -119 184 -234 194 -333 l6
-53 -39 5 c-55 8 -151 42 -201 71 -46 27 -104 86 -127 131 -19 37 -39 121 -32
138 11 28 199 -60 255 -120 53 -56 50 -15 -4 69 -48 74 -82 107 -161 157 -39
25 -91 70 -116 99 -54 64 -121 180 -149 258 l-20 56 6 -100z m1349 -311 c29
-11 16 -24 -24 -24 -38 0 -54 13 -27 23 18 8 33 8 51 1z"></path>
<path style="position: relative;" class="node" id="node2" d="M1427 2055 c-18 -25 -41 -119 -58 -240 -5 -38 -21 -94 -34 -123 -19
-40 -21 -51 -9 -41 24 20 59 78 73 122 15 44 28 47 37 10 9 -38 61 -141 91
-180 l24 -33 -22 -147 c-35 -239 -48 -396 -48 -598 -1 -207 10 -321 40 -430
10 -38 19 -71 19 -72 0 -2 -34 -3 -75 -3 -87 0 -83 -9 -59 125 28 164 43 328
45 500 1 94 3 162 6 153 2 -10 9 -18 15 -18 17 0 4 278 -15 322 -15 32 -15 37
-1 49 9 7 26 33 39 58 l23 46 -30 35 c-17 19 -39 54 -50 78 -10 23 -22 42 -26
42 -4 0 -13 -14 -21 -31 -7 -17 -38 -55 -67 -86 l-54 -55 23 -47 c138 -274
150 -738 27 -1084 -17 -48 -28 -92 -25 -97 8 -13 99 -30 165 -30 62 0 157 17
164 29 3 4 -6 38 -20 76 -39 108 -64 228 -75 367 -21 257 23 584 101 756 25
54 25 76 0 93 -54 39 -141 247 -155 374 -12 114 -17 122 -48 80z m15 -489 c15
-21 15 -25 1 -46 -9 -12 -31 -28 -49 -36 -38 -16 -40 -21 -20 -49 11 -18 56
-144 56 -160 0 -3 -4 -4 -9 -1 -5 3 -12 23 -16 43 -6 35 -28 90 -61 155 -13
25 -12 29 24 72 20 24 42 45 47 45 6 0 18 -10 27 -23z m7 -415 c1 -57 -6 -30
-12 44 -4 54 -4 61 3 30 5 -22 9 -55 9 -74z"></path>
<path style="position: relative;" class="node" id="node3" d="M1182 1518 l-32 -20 31 -36 c57 -65 96 -165 114 -293 16 -109 16
-125 0 -250 -25 -197 -71 -331 -149 -432 -35 -46 -36 -50 -21 -67 15 -16 125
-80 139 -80 9 0 43 71 66 141 16 44 23 96 26 169 4 117 -4 108 -32 -35 -9 -44
-19 -84 -24 -90 -4 -5 -11 -21 -15 -35 -4 -14 -15 -35 -24 -46 -14 -19 -18
-20 -38 -7 l-23 15 21 29 c11 16 36 62 55 103 31 67 42 103 76 246 6 25 11
124 12 220 0 151 -3 187 -23 260 -24 93 -89 224 -112 227 -8 1 -29 -8 -47 -19z"></path>
<path style="position: relative;" class="node" id="node4" d="M1660 1488 c-45 -79 -75 -169 -90 -273 -20 -139 -6 -336 34 -493 18
-70 73 -195 106 -241 l20 -30 -22 -16 c-22 -15 -24 -14 -38 6 -24 36 -50 109
-65 184 -28 134 -35 139 -31 20 3 -75 11 -128 24 -165 26 -73 60 -140 72 -140
14 0 125 67 139 84 10 12 5 23 -25 63 -77 101 -125 240 -149 436 -16 129 -16
142 0 252 19 128 57 223 114 287 l31 36 -35 21 c-20 12 -40 21 -45 21 -5 0
-23 -24 -40 -52z"></path>
<path style="position: relative;" class="node" id="node5" d="M1240 1163 c0 -16 -10 -48 -21 -73 -11 -25 -23 -70 -26 -100 -10
-117 -82 -272 -178 -384 -42 -49 -46 -58 -34 -73 15 -18 98 -73 110 -73 14 0
87 120 118 195 34 82 40 140 7 71 -38 -80 -113 -186 -132 -186 -29 0 -23 23
14 64 129 140 209 356 182 496 -9 48 -26 90 -35 90 -3 0 -5 -12 -5 -27z"></path>
<path style="position: relative;" class="node" id="node6" d="M1665 1155 c-28 -61 -24 -190 8 -282 32 -90 93 -195 152 -261 42 -47
50 -72 24 -72 -19 0 -87 91 -135 178 -25 47 -25 47 -19 12 6 -41 85 -202 119
-243 22 -28 24 -28 52 -14 16 9 45 29 64 45 l35 29 -36 40 c-104 115 -178 271
-194 408 -4 33 -14 73 -22 88 -8 16 -18 47 -22 70 l-8 42 -18 -40z"></path>
<path style="position: relative;" class="node" id="node7" d="M1681 784 c0 -11 3 -14 6 -6 3 7 2 16 -1 19 -3 4 -6 -2 -5 -13z"></path>
</g>
<g transform="translate(0.000000,300.000000) scale(0.100000,-0.100000)" fill="#A0A0A0" stroke="none">



<path style="position: relative;" class="node" id="node11" d="M1437 1195 c3 -38 7 -72 9 -74 7 -8 3 64 -6 104 -7 31 -7 24 -3 -30z"></path>
<path style="position: relative;" class="node" id="node12" d="M1303 2343 c-27 -10 -11 -23 27 -23 40 0 53 13 24 24 -18 7 -33 7
-51 -1z"></path>
</g>
</svg>