<!--?xml version="1.0" standalone="no"?-->

<svg version="1.0" xmlns="http://www.w3.org/2000/svg" width="293.000000pt" height="300.000000pt" viewBox="0 0 293.000000 300.000000" preserveAspectRatio="xMidYMid meet">
<g transform="translate(0.000000,300.000000) scale(0.100000,-0.100000)" fill="#262626" stroke="none">
<path class="node" id="node1" d="M885 2982 c-40 -25 -49 -37 -74 -104 -20 -55 -15 -79 9 -40 10 16 10
16 8 -2 -5 -31 18 -29 43 4 13 18 37 45 54 61 35 34 18 39 -38 10 -32 -17 -35
-17 -27 -2 16 31 73 54 112 47 36 -6 124 -63 115 -73 -3 -2 -15 5 -26 16 -12
12 -28 21 -37 21 -12 0 -6 -11 19 -39 56 -62 60 -135 13 -244 -12 -28 -29 -78
-36 -110 -9 -37 -16 -53 -22 -45 -4 8 -8 -13 -8 -49 0 -34 -5 -65 -10 -68 -12
-7 -8 137 4 170 17 45 -38 -32 -68 -95 -39 -84 -46 -177 -18 -265 l18 -60 2
105 c0 58 5 119 10 135 7 24 8 18 8 -35 -1 -68 49 -244 66 -234 13 8 9 78 -6
115 -8 19 -17 57 -20 84 -5 41 -4 45 5 23 11 -29 37 -44 51 -30 6 6 -1 20 -16
35 -14 14 -26 32 -26 39 0 7 7 2 16 -10 16 -24 62 -47 72 -37 3 3 -9 19 -26
35 -18 16 -32 37 -32 47 1 14 4 12 15 -9 8 -14 31 -36 51 -49 32 -20 52 -23
153 -24 137 -3 179 -16 311 -102 128 -83 355 -286 343 -307 -3 -6 -3 -8 2 -4
4 4 21 -4 37 -17 16 -14 35 -25 41 -25 8 0 8 -3 0 -11 -8 -8 -7 -18 3 -37 12
-23 12 -27 0 -30 -20 -4 -66 21 -95 52 -28 30 -44 32 -116 11 -48 -14 -57 -14
-101 1 -27 9 -61 27 -76 39 -31 27 -96 51 -106 40 -4 -4 0 -10 8 -13 8 -3 37
-26 65 -52 59 -55 83 -70 122 -71 l28 -1 -32 -10 c-29 -9 -38 -7 -73 16 -23
15 -57 44 -76 66 -34 37 -90 70 -144 85 -14 4 4 -13 40 -37 36 -23 67 -51 68
-62 4 -17 3 -18 -19 -2 -29 20 -45 21 -29 1 9 -11 9 -15 1 -15 -7 0 -38 27
-71 60 -33 33 -62 60 -65 60 -8 0 59 -95 94 -133 32 -35 101 -56 171 -51 47 4
51 3 30 -7 -42 -19 -178 -18 -271 1 -120 25 -158 53 -200 150 -33 77 -83 150
-101 150 -5 0 1 -19 14 -42 40 -69 43 -88 8 -50 -16 18 -30 39 -30 47 0 8 -4
15 -10 15 -13 0 -12 -10 5 -40 17 -30 19 -44 4 -34 -6 3 -26 37 -44 75 -34 72
-52 75 -28 6 38 -111 116 -196 227 -251 71 -34 249 -76 326 -76 33 0 36 -3 52
-47 25 -75 53 -216 42 -220 -5 -2 -53 -27 -107 -57 -133 -74 -184 -117 -198
-168 -6 -22 -20 -53 -31 -68 -18 -25 -19 -32 -7 -90 7 -35 21 -72 31 -82 19
-19 58 -25 58 -8 0 6 6 10 14 10 19 0 66 50 66 70 0 10 -6 23 -14 29 -12 10
-15 8 -18 -11 -2 -12 -10 -24 -19 -26 -18 -3 -42 41 -29 54 4 5 10 37 12 71 3
43 10 69 24 84 29 32 211 149 232 149 9 0 -7 -286 -17 -320 -6 -19 -20 -80
-32 -135 l-21 -100 -142 2 c-77 1 -142 2 -144 2 -1 1 4 14 13 31 24 47 17 58
-16 22 -17 -19 -33 -32 -35 -29 -3 2 -9 45 -14 93 -14 136 -52 244 -123 354
-63 96 -212 229 -341 304 -62 36 -50 16 40 -67 39 -37 96 -97 126 -134 54 -66
128 -185 128 -204 0 -5 -31 17 -69 48 -37 32 -88 69 -112 82 -41 23 -38 18 46
-70 90 -93 152 -171 124 -154 -7 5 -38 26 -68 47 -72 50 -92 48 -36 -3 99 -92
196 -232 211 -305 l6 -31 -69 -7 c-101 -11 -115 -16 -110 -37 3 -12 -2 -20
-17 -25 -39 -12 -146 -67 -146 -75 0 -12 22 -11 120 6 107 19 386 37 505 33
l90 -3 -3 -32 c-2 -17 2 -34 8 -38 15 -10 50 24 50 48 0 19 5 20 120 14 66 -4
152 -12 191 -18 79 -12 108 -7 89 16 -10 12 -2 13 59 8 47 -4 71 -2 71 5 0 10
-104 45 -170 57 -49 8 -134 28 -139 32 -5 4 2 10 100 84 41 31 123 80 182 109
59 29 105 55 103 58 -15 14 -236 -82 -331 -144 -36 -23 -30 -13 41 76 67 83
184 193 270 250 12 8 55 37 95 65 41 27 94 62 119 77 25 15 38 28 30 28 -22 0
-227 -106 -285 -148 -27 -20 -66 -46 -85 -60 -56 -37 -162 -136 -195 -181 -16
-22 -33 -41 -37 -41 -25 -1 139 220 202 274 18 14 26 26 20 26 -28 0 -202
-181 -283 -295 -28 -39 -30 -24 -7 36 21 53 21 53 1 35 -25 -23 -101 -177
-101 -205 0 -12 -4 -21 -10 -21 -5 0 -10 7 -10 16 0 46 53 347 70 401 24 75
25 95 4 135 -9 17 -12 34 -7 39 15 15 212 79 306 98 47 10 51 14 43 44 -4 18
-35 40 -130 91 -68 37 -127 73 -130 82 -6 15 26 54 44 54 22 0 58 -24 53 -35
-7 -19 73 -63 134 -74 65 -13 118 1 160 42 18 17 31 32 29 34 -2 2 -23 -6 -47
-17 -54 -24 -173 -27 -224 -6 -49 21 -44 27 8 9 51 -18 158 -13 200 10 25 13
26 16 10 20 -10 3 1 5 23 6 24 0 47 8 54 16 11 13 8 15 -20 15 -67 0 -168 62
-293 178 -217 203 -409 329 -533 351 -33 6 -95 10 -138 9 l-77 -3 -34 37 c-40
43 -51 99 -39 186 8 52 9 54 12 20 3 -39 22 -54 22 -18 0 11 14 46 30 77 25
47 30 67 30 127 0 39 -5 78 -10 86 -7 12 -3 16 18 21 l27 6 -39 17 c-37 17
-38 18 -20 37 19 21 11 40 -8 21 -7 -7 -19 -12 -27 -12 -12 0 -12 3 -3 12 20
20 14 26 -25 26 -21 0 -65 3 -98 6 -50 6 -65 4 -90 -12z m-21 -127 c-4 -8 -8
-15 -10 -15 -2 0 -4 7 -4 15 0 8 4 15 10 15 5 0 7 -7 4 -15z m251 -15 c21 -40
21 -107 1 -150 -12 -26 -15 -29 -12 -10 16 87 17 108 3 148 -17 49 -14 54 8
12z m-168 -442 c-3 -7 -5 -2 -5 12 0 14 2 19 5 13 2 -7 2 -19 0 -25z m852
-756 c52 -27 97 -54 99 -60 2 -6 -20 -23 -50 -36 -72 -33 -195 -86 -201 -86
-12 0 -43 223 -33 239 10 16 88 -8 185 -57z"></path>
<path class="node" id="node2" d="M928 2883 c-24 -28 -28 -49 -13 -71 8 -10 11 -22 8 -26 -10 -10 -53
-7 -53 4 0 12 -79 2 -97 -12 -7 -6 -28 -33 -47 -61 -20 -29 -56 -81 -81 -117
-79 -113 -144 -214 -140 -218 2 -2 36 31 77 74 183 193 279 279 328 295 19 7
48 21 63 32 24 17 32 18 52 7 20 -11 23 -18 18 -49 -7 -45 -32 -84 -127 -193
-55 -65 -79 -101 -91 -140 -31 -107 -12 -235 49 -327 27 -39 36 -64 36 -95 0
-30 3 -37 10 -26 18 27 10 83 -22 169 -54 141 -42 266 34 374 13 18 28 39 33
48 6 9 26 40 46 70 41 62 59 109 59 154 0 28 -5 34 -32 45 -18 6 -41 16 -51
21 -13 7 -19 5 -23 -6 -9 -21 -24 -19 -24 4 0 21 19 31 58 31 25 0 25 1 6 15
-26 20 -58 19 -76 -2z m-165 -183 c-32 -32 -59 -57 -61 -55 -8 8 85 115 101
115 12 0 0 -18 -40 -60z"></path>
<path class="node" id="node3" d="M1035 2265 c-30 -29 -30 -32 -6 -87 26 -61 88 -120 162 -155 74 -35
94 -40 192 -53 311 -40 367 -54 504 -125 l68 -35 -44 40 c-92 82 -230 140
-411 171 -207 35 -317 79 -393 157 -38 39 -46 62 -32 95 11 25 -12 21 -40 -8z"></path>
<path class="node" id="node4" d="M1140 2283 c-26 -10 -50 -35 -50 -54 0 -22 60 -72 119 -100 24 -11
78 -27 120 -35 124 -23 213 -43 261 -60 92 -33 176 -69 224 -97 27 -15 50 -26
53 -24 8 9 -74 68 -147 106 -100 52 -151 67 -308 91 -145 21 -184 35 -227 80
-23 24 -27 35 -22 64 6 36 4 39 -23 29z"></path>
<path class="node" id="node5" d="M1192 2274 c-14 -10 -22 -24 -20 -37 4 -29 21 -31 33 -5 6 13 20 27
33 33 12 5 22 13 22 17 0 14 -45 8 -68 -8z"></path>
<path class="node" id="node6" d="M1255 2260 c-35 -14 -48 -36 -35 -59 14 -26 26 -27 33 -1 5 21 44 40
80 40 19 0 18 -3 -10 -20 -17 -10 -37 -29 -43 -41 -11 -20 -11 -21 11 -14 13
4 67 9 119 10 l95 3 -83 -8 c-97 -9 -136 -30 -55 -30 75 0 228 -43 317 -89 90
-47 96 -49 71 -21 -30 34 -126 93 -190 117 -33 13 -48 21 -33 18 14 -3 33 -8
42 -11 9 -3 16 -1 16 4 0 14 -93 58 -160 76 -30 8 -48 15 -40 16 10 1 9 4 -5
10 -25 11 -104 11 -130 0z"></path>
<path class="node" id="node7" d="M1100 1996 c0 -4 16 -39 36 -77 48 -91 102 -131 201 -152 40 -8 74
-12 77 -10 2 3 -11 18 -29 35 -19 16 -44 46 -56 66 -47 78 -93 121 -129 122
-10 0 -8 -4 6 -14 27 -20 77 -92 72 -106 -2 -7 -23 9 -46 34 -48 52 -54 48
-16 -10 24 -37 23 -37 -23 11 -27 28 -58 64 -70 80 -13 17 -23 26 -23 21z"></path>
<path class="node" id="node8" d="M1550 1919 c8 -8 44 -29 80 -47 64 -32 106 -38 145 -23 17 7 15 9
-15 16 -19 4 -53 16 -74 26 -22 10 -55 21 -75 25 -20 3 -45 8 -56 11 -16 5
-17 4 -5 -8z"></path>
<path class="node" id="node9" d="M1341 669 c-28 -17 -32 -24 -28 -48 5 -26 4 -28 -21 -23 -15 2 -35
12 -45 20 -20 18 -44 3 -34 -21 7 -18 71 -31 95 -18 12 6 35 4 72 -6 54 -14
183 -13 223 3 24 9 21 24 -5 25 -22 0 -22 1 -3 9 12 4 26 14 33 22 10 12 8 19
-10 34 -21 19 -21 19 -16 -3 5 -18 0 -24 -27 -33 -55 -18 -142 7 -104 31 7 4
10 11 6 15 -12 12 -51 -32 -44 -50 4 -9 24 -18 47 -22 22 -4 40 -10 40 -13 0
-17 -144 12 -156 31 -9 14 15 36 47 43 16 4 29 11 29 16 0 17 -65 9 -99 -12z"></path>
<path class="node" id="node10" d="M1690 670 c0 -5 11 -10 25 -10 29 0 45 -28 24 -41 -8 -5 -26 -9 -41
-9 -34 0 -58 -9 -58 -22 0 -17 126 -3 145 15 21 22 19 32 -11 56 -27 22 -84
29 -84 11z"></path>
<path class="node" id="node11" d="M1821 641 c-8 -5 -11 -16 -8 -24 4 -10 -2 -17 -14 -20 -11 -3 -18
-11 -17 -17 2 -8 -30 -19 -87 -32 -75 -16 -115 -19 -240 -15 -82 3 -167 11
-188 18 -28 9 -40 10 -49 1 -24 -24 23 -50 145 -76 39 -9 33 -22 -15 -35 -63
-17 -113 -44 -113 -61 0 -24 53 -42 142 -48 46 -2 86 -8 88 -13 5 -8 -58 -22
-159 -36 -95 -13 -83 -40 21 -46 49 -3 66 -14 32 -21 -147 -30 -159 -35 -159
-66 0 -25 49 -40 127 -40 66 0 78 -13 23 -25 -34 -7 -39 -21 -11 -30 42 -13
151 29 151 59 0 18 -13 23 -96 32 -53 6 -63 9 -44 15 14 4 45 8 70 8 51 2 176
43 198 65 20 20 0 45 -37 47 -23 2 -24 2 -3 6 29 6 50 42 31 54 -20 13 -73 25
-172 40 -52 7 -83 16 -75 20 8 4 89 13 181 20 92 7 172 16 178 20 22 13 -1 27
-57 34 -30 4 -54 8 -52 10 1 2 66 9 143 15 153 14 184 22 164 46 -6 8 -22 14
-35 14 -13 0 -24 5 -24 10 0 6 9 10 19 10 10 0 29 9 42 19 18 15 21 22 12 31
-15 16 -94 24 -112 11z"></path>
<path class="node" id="node12" d="M1767 434 c-3 -3 -58 -11 -122 -18 -63 -6 -116 -15 -116 -21 -1 -32
238 -33 286 -1 21 14 24 20 14 32 -11 14 -50 19 -62 8z"></path>
<path class="node" id="node13" d="M1113 326 c-18 -29 90 -47 176 -30 36 8 41 22 9 29 -44 9 -180 10
-185 1z"></path>
<path class="node" id="node14" d="M1565 184 c-97 -20 -103 -23 -85 -34 20 -13 78 -12 142 1 61 13 80
25 58 39 -19 12 -29 12 -115 -6z"></path>











</g>
<g transform="translate(0.000000,300.000000) scale(0.100000,-0.100000)" fill="#FFFFFF" stroke="none">

<path class="node" id="node27" d="M742 2704 c-24 -31 -42 -58 -40 -59 2 -2 29 23 61 55 40 42 52 60 40
60 -10 0 -37 -25 -61 -56z"></path>
<path class="node" id="node28" d="M850 2855 c0 -8 2 -15 4 -15 2 0 6 7 10 15 3 8 1 15 -4 15 -6 0 -10
-7 -10 -15z"></path>
<path class="node" id="node29" d="M1107 2828 c14 -40 13 -61 -3 -148 -3 -19 0 -16 12 10 20 43 20 110
-1 150 -22 42 -25 37 -8 -12z"></path>
<path class="node" id="node30" d="M942 2410 c0 -14 2 -19 5 -12 2 6 2 18 0 25 -3 6 -5 1 -5 -13z"></path>
<path class="node" id="node31" d="M1614 1699 c-10 -16 21 -239 33 -239 6 0 129 53 201 86 30 13 52 30
50 36 -2 6 -47 33 -99 60 -97 49 -175 73 -185 57z"></path>
</g>
</svg>