<?xml version="1.0" encoding="UTF-8" standalone="no"?>
<svg
   xmlns:dc="http://purl.org/dc/elements/1.1/"
   xmlns:cc="http://creativecommons.org/ns#"
   xmlns:rdf="http://www.w3.org/1999/02/22-rdf-syntax-ns#"
   xmlns:svg="http://www.w3.org/2000/svg"
   xmlns="http://www.w3.org/2000/svg"
   xmlns:sodipodi="http://sodipodi.sourceforge.net/DTD/sodipodi-0.dtd"
   xmlns:inkscape="http://www.inkscape.org/namespaces/inkscape"
   version="1.0"
   width="640.000000pt"
   height="640.000000pt"
   viewBox="0 0 640.000000 640.000000"
   preserveAspectRatio="xMidYMid meet"
   id="svg2"
   inkscape:version="0.91 r13725"
   sodipodi:docname="logo.svg">
  <defs
     id="defs16">
    <linearGradient
       id="linearGradient5624">
      <stop
         style="stop-color:#d7d9d9;stop-opacity:1;"
         offset="0"
         id="stop5626" />
      <stop
         style="stop-color:#ffffff;stop-opacity:0.14901961;"
         offset="1"
         id="stop5628" />
    </linearGradient>
  </defs>
  <sodipodi:namedview
     pagecolor="#ffffff"
     bordercolor="#666666"
     borderopacity="1"
     objecttolerance="10"
     gridtolerance="10"
     guidetolerance="10"
     inkscape:pageopacity="0"
     inkscape:pageshadow="2"
     inkscape:window-width="1317"
     inkscape:window-height="744"
     id="namedview14"
     showgrid="false"
     showborder="true"
     inkscape:zoom="0.417193"
     inkscape:cx="324.63198"
     inkscape:cy="357.72139"
     inkscape:window-x="49"
     inkscape:window-y="24"
     inkscape:window-maximized="1"
     inkscape:current-layer="layer1">
    <inkscape:grid
       type="xygrid"
       id="grid4160" />
  </sodipodi:namedview>
  <metadata
     id="metadata4">
Created by potrace 1.13, written by Peter Selinger 2001-2015
<rdf:RDF>
  <cc:Work
     rdf:about="">
    <dc:format>image/svg+xml</dc:format>
    <dc:type
       rdf:resource="http://purl.org/dc/dcmitype/StillImage" />
    <dc:title></dc:title>
  </cc:Work>
</rdf:RDF>
</metadata>
  <g
     transform="matrix(0.1339135,0,0,-0.1339135,-159.85172,707.06667)"
     id="g6"
     style="fill:#000000;stroke:none" />
  <g
     inkscape:groupmode="layer"
     id="layer2"
     inkscape:label="Logo"
     style="display:inline">
    <g
       inkscape:groupmode="layer"
       id="layer3"
       inkscape:label="Cember"
       style="display:inline">
      <circle
         cy="316.60162"
         cx="312.9592"
         id="path3344"
         style="display:inline;fill:#ffffff;fill-opacity:1;fill-rule:evenodd;stroke:#000000;stroke-width:9.37582207;stroke-linecap:butt;stroke-linejoin:miter;stroke-miterlimit:4;stroke-dasharray:none;stroke-opacity:1"
         inkscape:export-xdpi="6.0164647"
         inkscape:export-ydpi="6.0164647"
         r="294.51733" />
    </g>
    <g
       transform="matrix(0.10462909,0,0,-0.10462909,-61.957805,604.19219)"
       style="fill:#000000;stroke:none"
       id="g4166"
       inkscape:export-xdpi="8.2145796"
       inkscape:export-ydpi="8.2145796">
      <g
         transform="translate(668.2786,-60.752595)"
         id="g4148">
        <path
           d="m 2562,5183 c -141,-369 -229,-844 -257,-1393 -30,-602 236,-1537 542,-1897 l 52,-62 -37,-12 c -81,-26 -438,-171 -578,-235 -179,-82 -427,-208 -704,-357 -113,-60 -241,-128 -285,-149 -44,-21 -69,-36 -55,-33 14,4 221,103 460,220 239,117 473,230 520,250 287,125 691.2029,257.2805 740.1402,272.4686 119.977,42.9933 240.4729,81.6246 335.5018,112.0958 l 50.7195,16.561 L 3431,1943 c 250,68 612,146 839,181 251,40 655,78 885,85 277,8 590,-1 693,-19 82,-15 105,-6 100,39 -4,35 -36,48 -154,63 -151,19 -735,15 -959,-6 -464,-44 -1008,-149 -1399,-272 -43,-13 -81,-23 -83,-21 -5,5 69,125 331,540 48,76 125,206 171,288 203,365 243,532 207,864 -30,273 -13.9893,264.5459 -63.3177,257.9998 1.7265,-167.5148 -39.5773,7.3153 -45.5773,31.3153 -34,160 -134,462 -170,517 -28.9497,32.895 -48,22.2603 -68,4 -3.6301,-13.79 -10.7352,-31.6346 -12.7352,-28.6346 -2,2 -22.2648,51.6346 -37.2648,95.6346 -31,90 -112,248 -161,315 -19,25 -52.105,65.6849 -75.105,87.6849 l -43,40 40,-45 c 130,-146 249,-414 262,-590 7,-80 8,-85 31,-88 23,-4 24,-3 15,50 -12,75 -10,126 4,140 18,18 25,4 76,-152 61,-187 126.1914,-482.0002 126,-569 -0.1899,-86.3294 47.4814,-104.5919 53.7195,-74.4207 L 4000,3706.9556 4000,3521 c 0,-104 -5,-147 -25,-227 -45,-178 -112,-302 -445,-829 -70,-110 -171,-273 -226,-362 l -99,-161 -104,-36 -91.0775,-33.4686 L 2941,1927 c -159,169 -332,526 -449,928 -80,277 -117,481 -133,734 -30,470 62,1172 205,1565 20,55 34,101 32,103 -2,2 -17,-31 -34,-74 z"
           id="path8"
           inkscape:connector-curvature="0"
           sodipodi:nodetypes="cccccccscsccccccccccccsccccccccccccccccscsscsccccccccccsc" />
        <path
           d="m 2478,5133 c -90.4201,-118.1095 -234,-466 -293,-763 -28,-142 -60,-256 -76,-265 -13,-9 -11,18 11,135 11,57 23,146 26,197 6,77 4,96 -10,118 -22,34 -49,32 -93,-9 -90,-80 -201,-322 -363,-786 -18,-52 -36,-99 -40,-103 -4,-4 -14,3 -23,16 -8,13 -29,30 -46,37 -47,19 -88,-10 -128,-89 -51,-102 -68,-194 -67,-356 1,-113 6,-164 28,-265 97,-447 249,-718 582,-1040 136,-132 395.6124,-329.245 414.6124,-332.245 39,-6 92.3884,6.5048 80.3884,38.5048 -3,9 -191.0008,143.7402 -275.0008,217.7402 -448,396 -616,669 -716,1166 -39,193 -24,416 37,533 14,28 16,29 26,12 16,-30 21,-153 8,-244 -12,-94 -5,-121 34,-121 29,0 41,19 50,85 32,229 243,875 352,1075 41,76 80,130 94,130 16,0 10,-127 -12,-262 -11,-70 -19,-144 -17,-165 3,-33 7,-38 30,-41 50,-6 82,71 118,283 52,309 146.3609,596.9823 272,788 132.7589,180.6704 60.1599,84.3537 -4,10 z"
           id="path10"
           inkscape:connector-curvature="0"
           sodipodi:nodetypes="ccccccccscccccccccccccsccscccccc" />
        <path
           d="m 3314,4973 c -23,-35 -23,-84 1,-193 15,-71 17,-114 12,-265 -8,-219 -17,-286 -64,-440 -80,-264 -179,-459 -357,-699 -45,-61 -107,-147 -136,-191 -29,-44 -69,-100 -88,-125 L 2590.7219,2957.7219 2684,3055 c 20,22 71,87 112,144 42,57 102,137 135,178 79,99 198,281 244,373 47,94 125,300 153,405 51,190 69,533 36,677 -15,66 -15,74 0,106 13,26 14,37 5,48 -17,21 -35,17 -55,-13 z"
           id="path12"
           inkscape:connector-curvature="0"
           sodipodi:nodetypes="cccccscccccsccccc" />
      </g>
    </g>
  </g>
  <g
     inkscape:groupmode="layer"
     id="layer1"
     inkscape:label="Text"
     style="display:none">
    <text
       xml:space="preserve"
       style="font-style:normal;font-variant:normal;font-weight:normal;font-stretch:normal;font-size:58.04431915px;line-height:125%;font-family:'Spicy Rice';-inkscape-font-specification:'Spicy Rice';text-align:center;letter-spacing:0px;word-spacing:0px;text-anchor:middle;fill:#000000;fill-opacity:1;stroke:none;stroke-width:1px;stroke-linecap:butt;stroke-linejoin:miter;stroke-opacity:1"
       x="318.83188"
       y="505.19794"
       id="text4153"
       sodipodi:linespacing="125%"><tspan
         sodipodi:role="line"
         id="tspan4155"
         x="318.83188"
         y="505.19794"
         style="font-style:normal;font-variant:normal;font-weight:normal;font-stretch:normal;font-size:51.59494781px;font-family:'Spicy Rice';-inkscape-font-specification:'Spicy Rice';text-align:center;text-anchor:middle">TURNA</tspan><tspan
         sodipodi:role="line"
         x="318.83188"
         y="569.69165"
         id="tspan4157"
         style="font-style:normal;font-variant:normal;font-weight:normal;font-stretch:normal;font-size:51.59494781px;font-family:'Spicy Rice';-inkscape-font-specification:'Spicy Rice';text-align:center;text-anchor:middle">TEKNOLOJİ</tspan></text>
  </g>
</svg>
